{"title":"Cars.2.2011.TS.CLEANED.XViD.AC3.Hive-CM8","uid":6507592,"size":1625826121,"categoryP":"video","categoryS":"movies","magnet":"?xt=urn:btih:3e51dd98703efbb4b6f08ff16eefb8b9c85bc091&amp;dn=Cars.2.2011.TS.CLEANED.XViD.AC3.Hive-CM8&amp;tr=udp%3A%2F%2Ftracker.openbittorrent.com%3A80&amp;tr=udp%3A%2F%2Fopen.demonii.com%3A1337&amp;tr=udp%3A%2F%2Ftracker.coppersurfer.tk%3A6969&amp;tr=udp%3A%2F%2Fexodus.desync.com%3A6969","seeders":1,"leechers":0,"uploader":".BONE.","files":4,"time":1309519718,"description":" &lt;a href=&quot;http://img823.imageshack.us/img823/345/48800502.png&quot; rel=&quot;nofollow&quot; target=&quot;_NEW&quot;&gt;http://img823.imageshack.us/img823/345/48800502.png&lt;/a&gt;\n\n\n\nThx Hive\n\nCM8 Doing It Right The First Time\n\n\nSources:\nVideo: Russian Relizlab\nAudio: Imagines Line\nthx\n\nEncode:\nThe Russian video was already nice, just played with rgb and black base,\nbit sharpness. Looks very good even on big tvs.\nAudio was hell to clean, sounded like recorded in an empty cinema, echo\nand voices not centered, fixed that, also removed noise, hiss, and cleared\nthe voices. Resynched Audio to my new video and fixed all 15 oos spots.\nAudio is heaps better now. You will hear the difference.\nVideo is also a lot better than Imagine in fast action scenes. You will\nsee the difference. Included 2 samples, quality and racing, so that you\ncan see what you get. Enjoy!\n\nVideo: 720x304 @bitrate 2000 2pass\nAudio: English AC3 2.0 Stereo\nSample: yes 2 included, quality and racing\n\n\n\n\nGeneral\nComplete name : Cars.2.2011.TS.CLEANED.XViD.AC3.Hive-CM8.avi\nFormat : AVI\nFormat/Info : Audio Video Interleave\nFile size : 1.50 GiB\nDuration : 1h 34mn\nOverall bit rate : 2 265 Kbps\nWriting application : Nandub v1.0rc2\nWriting library : Nandub build 1853/release\n\nVideo\nID : 0\nFormat : MPEG-4 Visual\nFormat profile : Advanced Simple@L5\nFormat settings, BVOP : 2\nFormat settings, QPel : Yes\nFormat settings, GMC : No warppoints\nFormat settings, Matrix : Default (H.263)\nMuxing mode : Packed bitstream\nCodec ID : XVID\nCodec ID/Hint : XviD\nDuration : 1h 34mn\nBit rate : 2 000 Kbps\nWidth : 720 pixels\nHeight : 304 pixels\nDisplay aspect ratio : 2.35:1\nFrame rate : 25.000 fps\nColor space : YUV\nChroma subsampling : 4:2:0\nBit depth : 8 bits\nScan type : Progressive\nCompression mode : Lossy\nBits/(Pixel*Frame) : 0.365\nStream size : 1.32 GiB (88%)\nWriting library : XviD 1.2.1 (UTC 2008-12-04)\n\nAudio\nID : 1\nFormat : AC-3\nFormat/Info : Audio Coding 3\nMode extension : CM (complete main)\nCodec ID : 2000\nDuration : 1h 34mn\nBit rate mode : Constant\nBit rate : 256 Kbps\nChannel(s) : 2 channels\nChannel positions : Front: L R\nSampling rate : 48.0 KHz\nBit depth : 16 bits\nCompression mode : Lossy\nDelay relative to video : 125ms\nStream size : 173 MiB (11%)\nAlignment : Split accross interleaves\nInterleave, duration : 40 ms (1.00 video frame)\nInterleave, preload duration : 500 ms\n\n\nCAST\nLarry the Cable Guy ... Mater (voice)\nOwen Wilson ... Lightning McQueen (voice)\nMichael Caine ... Finn McMissile (voice)\nEmily Mortimer ... Holley Shiftwell (voice)\nEddie Izzard ... Sir Miles Axlerod (voice)\nJohn Turturro ... Francesco Bernoulli (voice)\nBonnie Hunt ... Sally (voice)\n\n\nPLOT\nStar race car Lightning McQueen and his pal Mater head overseas to compete\nin the World Grand Prix race. But the road to the championship becomes\nrocky as Mater gets caught up in an intriguing adventure of his own:\ninternational espionage.\n\nRead more: Cars 2 [2011] TS CLEANED XViD AC3 Hive-CM8\n &lt;a href=&quot;\nhttp://imgcrave.com/u/cars22yhy.jpg&quot; rel=&quot;nofollow&quot; target=&quot;_NEW&quot;&gt;\nhttp://imgcrave.com/u/cars22yhy.jpg&lt;/a&gt;","torrent":{"xt":"urn:btih:3e51dd98703efbb4b6f08ff16eefb8b9c85bc091","amp;dn":"Cars.2.2011.TS.CLEANED.XViD.AC3.Hive-CM8","amp;tr":["udp%3A%2F%2Ftracker.openbittorrent.com%3A80","udp%3A%2F%2Fopen.demonii.com%3A1337","udp%3A%2F%2Ftracker.coppersurfer.tk%3A6969","udp%3A%2F%2Fexodus.desync.com%3A6969"],"infoHash":"3e51dd98703efbb4b6f08ff16eefb8b9c85bc091","infoHashBuffer":{"type":"Buffer","data":[62,81,221,152,112,62,251,180,182,240,143,241,110,239,184,185,200,91,192,145]},"announce":[],"urlList":[]}}